# Blender v2.91.0 OBJ File: ''
# www.blender.org
mtllib iron_door.mtl
o iron_door.Merged_Plane-tex
v 1.000000 17.000000 7.000000
v 1.000000 9.000000 5.000000
v 1.000000 -1.000000 7.000000
v 1.000000 7.000000 5.000000
v 1.000000 11.000000 5.000000
v 1.000000 5.000000 5.000000
v 1.000000 7.000000 3.000000
v 1.000000 13.000000 5.000000
v 1.000000 3.000000 5.000000
v 1.000000 9.000000 3.000000
v 1.000000 11.000000 3.000000
v 1.000000 15.000000 5.000000
v 1.000000 1.000000 5.000000
v 1.000000 3.000000 3.000000
v 1.000000 7.000000 1.000000
v 1.000000 13.000000 3.000000
v 1.000000 15.000000 3.000000
v 1.000000 1.000000 3.000000
v 1.000000 5.000000 3.000000
v 1.000000 5.000000 1.000000
v 1.000000 9.000000 1.000000
v 1.000000 11.000000 1.000000
v 1.000000 15.000000 1.000000
v 1.000000 1.000000 1.000000
v 1.000000 3.000000 1.000000
v 1.000000 7.000000 -1.000000
v 1.000000 13.000000 1.000000
v 1.000000 15.000000 -1.000000
v 1.000000 1.000000 -1.000000
v 1.000000 9.000000 -1.000000
v 1.000000 11.000000 -1.000000
v 1.000000 17.000000 -7.000000
v 1.000000 -1.000000 -7.000000
v 1.000000 3.000000 -1.000000
v 1.000000 7.000000 -3.000000
v 1.000000 13.000000 -1.000000
v 1.000000 15.000000 -3.000000
v 1.000000 1.000000 -3.000000
v 1.000000 5.000000 -1.000000
v 1.000000 5.000000 -3.000000
v 1.000000 9.000000 -3.000000
v 1.000000 11.000000 -3.000000
v 1.000000 13.000000 -3.000000
v 1.000000 15.000000 -5.000000
v 1.000000 1.000000 -5.000000
v 1.000000 3.000000 -3.000000
v 1.000000 7.000000 -5.000000
v 1.000000 13.000000 -5.000000
v 1.000000 3.000000 -5.000000
v 1.000000 9.000000 -5.000000
v 1.000000 11.000000 -5.000000
v 1.000000 5.000000 -5.000000
v 3.000000 17.000000 7.000000
v 3.000000 9.000000 5.000000
v 3.000000 -1.000000 7.000000
v 3.000000 7.000000 5.000000
v 3.000000 11.000000 5.000000
v 3.000000 5.000000 5.000000
v 3.000000 7.000000 3.000000
v 3.000000 13.000000 5.000000
v 3.000000 3.000000 5.000000
v 3.000000 9.000000 3.000000
v 3.000000 11.000000 3.000000
v 3.000000 15.000000 5.000000
v 3.000000 1.000000 5.000000
v 3.000000 3.000000 3.000000
v 3.000000 7.000000 1.000000
v 3.000000 13.000000 3.000000
v 3.000000 15.000000 3.000000
v 3.000000 1.000000 3.000000
v 3.000000 5.000000 3.000000
v 3.000000 5.000000 1.000000
v 3.000000 9.000000 1.000000
v 3.000000 11.000000 1.000000
v 3.000000 15.000000 1.000000
v 3.000000 1.000000 1.000000
v 3.000000 3.000000 1.000000
v 3.000000 7.000000 -1.000000
v 3.000000 13.000000 1.000000
v 3.000000 15.000000 -1.000000
v 3.000000 1.000000 -1.000000
v 3.000000 9.000000 -1.000000
v 3.000000 11.000000 -1.000000
v 3.000000 17.000000 -7.000000
v 3.000000 -1.000000 -7.000000
v 3.000000 3.000000 -1.000000
v 3.000000 7.000000 -3.000000
v 3.000000 13.000000 -1.000000
v 3.000000 15.000000 -3.000000
v 3.000000 1.000000 -3.000000
v 3.000000 5.000000 -1.000000
v 3.000000 5.000000 -3.000000
v 3.000000 9.000000 -3.000000
v 3.000000 11.000000 -3.000000
v 3.000000 13.000000 -3.000000
v 3.000000 15.000000 -5.000000
v 3.000000 1.000000 -5.000000
v 3.000000 3.000000 -3.000000
v 3.000000 7.000000 -5.000000
v 3.000000 13.000000 -5.000000
v 3.000000 3.000000 -5.000000
v 3.000000 9.000000 -5.000000
v 3.000000 11.000000 -5.000000
v 3.000000 5.000000 -5.000000
vt 0.125088 0.874912
vt 0.249823 0.874912
vt 0.125088 0.750177
vt 0.125088 0.874912
vt 0.249823 0.874912
vt 0.249823 0.874912
vt 0.125088 0.750177
vt 0.125088 0.874912
vt 0.249823 0.874912
vt 0.249823 0.874912
vt 0.125088 0.750177
vt 0.249823 0.874912
vt 0.125088 0.750177
vt 0.125088 0.874912
vt 0.249823 0.874912
vt 0.249823 0.874912
vt 0.125088 0.750177
vt 0.125088 0.874912
vt 0.249823 0.874912
vt 0.249823 0.874912
vt 0.125088 0.750177
vt 0.125088 0.874912
vt 0.249823 0.874912
vt 0.249823 0.874912
vt 0.125088 0.750177
vt 0.125088 0.874912
vt 0.249823 0.874912
vt 0.249823 0.874912
vt 0.125088 0.750177
vt 0.125088 0.874912
vt 0.249823 0.874912
vt 0.125088 0.750177
vt 0.125088 0.874912
vt 0.125088 0.750177
vt 0.249823 0.874912
vt 0.125088 0.750177
vt 0.125088 0.874912
vt 0.125088 0.750177
vt 0.249823 0.874912
vt 0.125088 0.750177
vt 0.125088 0.874912
vt 0.249823 0.874912
vt 0.125088 0.874912
vt 0.125088 0.750177
vt 0.249823 0.874912
vt 0.125088 0.750177
vt 0.125088 0.874912
vt 0.249823 0.874912
vt 0.249823 0.874912
vt 0.125088 0.750177
vt 0.125088 0.874912
vt 0.249823 0.874912
vt 0.125088 0.874912
vt 0.125088 0.750177
vt 0.125088 0.750177
vt 0.249823 0.874912
vt 0.125088 0.750177
vt 0.125088 0.874912
vt 0.125088 0.750177
vt 0.249823 0.874912
vt 0.125088 0.750177
vt 0.125088 0.874912
vt 0.249823 0.874912
vt 0.125088 0.874912
vt 0.249823 0.874912
vt 0.125088 0.750177
vt 0.249823 0.874912
vt 0.125088 0.750177
vt 0.125088 0.874912
vt 0.249823 0.874912
vt 0.125088 0.750177
vt 0.249823 0.874912
vt 0.249823 0.874912
vt 0.125088 0.874912
vt 0.249823 0.874912
vt 0.125088 0.874912
vt 0.249823 0.874912
vt 0.249823 0.874912
vt 0.125088 0.750177
vt 0.125088 0.874912
vt 0.249823 0.874912
vt 0.249823 0.874912
vt 0.125088 0.750177
vt 0.249823 0.874912
vt 0.125088 0.750177
vt 0.125088 0.874912
vt 0.125088 0.750177
vt 0.249823 0.874912
vt 0.125088 0.750177
vt 0.125088 0.874912
vt 0.249823 0.874912
vt 0.125088 0.874912
vt 0.125088 0.750177
vt 0.249823 0.874912
vt 0.125088 0.750177
vt 0.125088 0.874912
vt 0.249823 0.874912
vt 0.125088 0.874912
vt 0.125088 0.750177
vt 0.125088 0.874912
vt 0.249823 0.874912
vt 0.249823 0.874912
vt 0.125088 0.750177
vt 0.125088 0.874912
vt 0.249823 0.874912
vt 0.125088 0.874912
vt 0.125088 0.750177
vt 0.125088 0.750177
vt 0.249823 0.874912
vt 0.125088 0.750177
vt 0.125088 0.750177
vt 0.125088 0.874912
vt 0.125088 0.750177
vt 0.125088 0.874912
vt 0.249823 0.874912
vt 0.125088 0.750177
vt 0.125088 0.750177
vt 0.249823 0.874912
vt 0.125088 0.750177
vt 0.125088 0.874912
vt 0.249823 0.874912
vt 0.125088 0.750177
vt 0.125088 0.874912
vt 0.249823 0.874912
vt 0.125088 0.874912
vt 0.125088 0.874912
vt 0.249823 0.874912
vt 0.125088 0.750177
vt 0.125088 0.874912
vt 0.125088 0.750177
vt 0.125088 0.874912
vt 0.249823 0.874912
vt 0.125088 0.874912
vt 0.125088 0.750177
vt 0.249823 0.874912
vt 0.125088 0.874912
vt 0.249823 0.874912
vt 0.125088 0.750177
vt 0.249823 0.874912
vt 0.125088 0.874912
vt 0.249823 0.874912
vt 0.125088 0.750177
vt 0.249823 0.874912
vt 0.125088 0.750177
vt 0.249823 0.874912
vt 0.125088 0.874912
vt 0.249823 0.874912
vt 0.125088 0.750177
vt 0.249823 0.874912
vt 0.125088 0.874912
vt 0.249823 0.874912
vt 0.125088 0.750177
vt 0.249823 0.874912
vt 0.125088 0.874912
vt 0.249823 0.874912
vt 0.125088 0.750177
vt 0.249823 0.874912
vt 0.125088 0.874912
vt 0.249823 0.874912
vt 0.125088 0.750177
vt 0.249823 0.874912
vt 0.125088 0.874912
vt 0.125088 0.750177
vt 0.125088 0.874912
vt 0.125088 0.750177
vt 0.249823 0.874912
vt 0.125088 0.750177
vt 0.125088 0.874912
vt 0.125088 0.750177
vt 0.249823 0.874912
vt 0.125088 0.750177
vt 0.249823 0.874912
vt 0.125088 0.874912
vt 0.125088 0.874912
vt 0.125088 0.750177
vt 0.249823 0.874912
vt 0.125088 0.750177
vt 0.249823 0.874912
vt 0.125088 0.874912
vt 0.249823 0.874912
vt 0.125088 0.750177
vt 0.249823 0.874912
vt 0.125088 0.874912
vt 0.125088 0.874912
vt 0.125088 0.750177
vt 0.125088 0.750177
vt 0.249823 0.874912
vt 0.125088 0.750177
vt 0.125088 0.874912
vt 0.125088 0.750177
vt 0.249823 0.874912
vt 0.125088 0.750177
vt 0.249823 0.874912
vt 0.125088 0.874912
vt 0.249823 0.874912
vt 0.125088 0.874912
vt 0.125088 0.750177
vt 0.249823 0.874912
vt 0.125088 0.750177
vt 0.249823 0.874912
vt 0.125088 0.874912
vt 0.125088 0.750177
vt 0.249823 0.874912
vt 0.249823 0.874912
vt 0.249823 0.874912
vt 0.125088 0.874912
vt 0.249823 0.874912
vt 0.125088 0.874912
vt 0.249823 0.874912
vt 0.125088 0.750177
vt 0.249823 0.874912
vt 0.125088 0.874912
vt 0.249823 0.874912
vt 0.125088 0.750177
vt 0.249823 0.874912
vt 0.125088 0.750177
vt 0.125088 0.874912
vt 0.125088 0.750177
vt 0.249823 0.874912
vt 0.125088 0.750177
vt 0.249823 0.874912
vt 0.125088 0.874912
vt 0.125088 0.874912
vt 0.125088 0.750177
vt 0.249823 0.874912
vt 0.125088 0.750177
vt 0.249823 0.874912
vt 0.125088 0.874912
vt 0.125088 0.874912
vt 0.125088 0.750177
vt 0.249823 0.874912
vt 0.125088 0.874912
vt 0.249823 0.874912
vt 0.125088 0.750177
vt 0.249823 0.874912
vt 0.125088 0.874912
vt 0.125088 0.874912
vt 0.125088 0.750177
vt 0.125088 0.750177
vt 0.249823 0.874912
vt 0.125088 0.750177
vt 0.125088 0.750177
vt 0.125088 0.874912
vt 0.125088 0.750177
vt 0.249823 0.874912
vt 0.125088 0.874912
vt 0.125088 0.750177
vt 0.125088 0.750177
vt 0.249823 0.874912
vt 0.125088 0.750177
vt 0.249823 0.874912
vt 0.125088 0.874912
vt 0.125088 0.750177
vt 0.249823 0.874912
vt 0.125088 0.874912
vt 0.125088 0.874912
vt 0.125088 0.874912
vt 0.249823 0.874912
vt 0.125088 0.750177
vt 0.125088 0.874912
vt 0.125088 0.750177
vt 0.125088 0.874912
vt 0.125088 0.874912
vt 0.125088 0.874912
vt 0.125088 0.874912
vt 0.125088 0.874912
vt 0.125088 0.874912
vt 0.125088 0.874912
vt 0.125088 0.874912
vt 0.249823 0.874912
vt 0.125088 0.750177
vt 0.249823 0.874912
vt 0.249823 0.874912
vt 0.249823 0.874912
vt 0.125088 0.874912
vt 0.125088 0.750177
vt 0.125088 0.874912
vt 0.125088 0.750177
vt 0.125088 0.874912
vt 0.249823 0.874912
vt 0.249823 0.874912
vt 0.125088 0.750177
vt 0.125088 0.750177
vt 0.125088 0.750177
vt 0.125088 0.750177
vt 0.125088 0.750177
vt 0.125088 0.874912
vt 0.125088 0.874912
vn -1.0000 0.0000 0.0000
vn 1.0000 0.0000 0.0000
vn 0.0000 -1.0000 0.0000
vn 0.0000 1.0000 0.0000
vn 0.0000 0.0000 1.0000
vn 0.0000 0.0000 -1.0000
usemtl lambert0
s off
f 1/1/1 2/2/1 3/3/1
f 2/4/1 4/5/1 3/3/1
f 1/1/1 5/6/1 2/7/1
f 4/8/1 6/9/1 3/3/1
f 2/4/1 7/10/1 4/11/1
f 1/1/1 8/12/1 5/13/1
f 6/14/1 9/15/1 3/3/1
f 2/4/1 10/16/1 7/17/1
f 8/18/1 11/19/1 5/13/1
f 1/1/1 12/20/1 8/21/1
f 9/22/1 13/23/1 3/3/1
f 6/14/1 14/24/1 9/25/1
f 10/26/1 15/27/1 7/17/1
f 8/18/1 16/28/1 11/29/1
f 12/30/1 1/31/1 17/32/1
f 3/33/1 13/23/1 18/34/1
f 6/14/1 19/35/1 14/36/1
f 7/37/1 15/27/1 20/38/1
f 10/26/1 21/39/1 15/40/1
f 16/41/1 22/42/1 11/29/1
f 17/43/1 1/31/1 23/44/1
f 3/33/1 18/45/1 24/46/1
f 19/47/1 25/48/1 14/36/1
f 7/37/1 20/49/1 19/50/1
f 21/51/1 26/52/1 15/40/1
f 11/53/1 21/39/1 10/54/1
f 11/53/1 22/42/1 21/55/1
f 16/41/1 27/56/1 22/57/1
f 23/58/1 1/31/1 28/59/1
f 17/43/1 23/60/1 27/61/1
f 14/62/1 24/63/1 18/34/1
f 29/64/1 3/65/1 24/46/1
f 14/62/1 25/48/1 24/46/1
f 19/47/1 20/49/1 25/66/1
f 21/51/1 30/67/1 26/68/1
f 27/69/1 31/70/1 22/57/1
f 17/43/1 27/56/1 16/71/1
f 1/1/1 32/72/1 28/59/1
f 29/64/1 33/73/1 3/3/1
f 20/74/1 34/75/1 25/66/1
f 30/76/1 35/77/1 26/68/1
f 27/69/1 36/78/1 31/79/1
f 32/80/1 37/81/1 28/59/1
f 29/64/1 38/82/1 33/83/1
f 20/74/1 39/84/1 34/85/1
f 26/86/1 35/77/1 40/87/1
f 30/76/1 41/88/1 35/89/1
f 36/90/1 42/91/1 31/79/1
f 28/92/1 37/81/1 43/93/1
f 32/80/1 44/94/1 37/95/1
f 38/96/1 45/97/1 33/83/1
f 34/98/1 38/82/1 29/99/1
f 39/100/1 46/101/1 34/85/1
f 26/86/1 40/102/1 39/103/1
f 41/104/1 47/105/1 35/89/1
f 31/106/1 41/88/1 30/107/1
f 31/106/1 42/91/1 41/108/1
f 36/90/1 43/109/1 42/110/1
f 28/92/1 43/109/1 36/111/1
f 48/112/1 44/94/1 32/113/1
f 45/114/1 49/115/1 33/83/1
f 34/98/1 46/101/1 38/116/1
f 39/100/1 40/102/1 46/117/1
f 41/104/1 50/118/1 47/119/1
f 43/120/1 51/121/1 42/110/1
f 32/80/1 51/121/1 48/122/1
f 49/123/1 52/124/1 33/83/1
f 40/125/1 49/115/1 46/117/1
f 47/126/1 50/118/1 33/83/1
f 43/120/1 48/127/1 51/128/1
f 32/80/1 50/118/1 51/128/1
f 52/129/1 47/105/1 33/83/1
f 40/125/1 52/124/1 49/130/1
f 33/131/1 50/118/1 32/113/1
f 54/132/2 53/133/2 55/134/2
f 56/135/2 54/136/2 55/134/2
f 57/137/2 53/133/2 54/138/2
f 58/139/2 56/140/2 55/134/2
f 59/141/2 54/136/2 56/142/2
f 60/143/2 53/133/2 57/144/2
f 61/145/2 58/146/2 55/134/2
f 62/147/2 54/136/2 59/148/2
f 63/149/2 60/150/2 57/144/2
f 64/151/2 53/133/2 60/152/2
f 65/153/2 61/154/2 55/134/2
f 66/155/2 58/146/2 61/156/2
f 67/157/2 62/158/2 59/148/2
f 68/159/2 60/150/2 63/160/2
f 53/161/2 64/162/2 69/163/2
f 65/153/2 55/164/2 70/165/2
f 71/166/2 58/146/2 66/167/2
f 67/157/2 59/168/2 72/169/2
f 73/170/2 62/158/2 67/171/2
f 74/172/2 68/173/2 63/160/2
f 53/161/2 69/174/2 75/175/2
f 70/176/2 55/164/2 76/177/2
f 77/178/2 71/179/2 66/167/2
f 72/180/2 59/168/2 71/181/2
f 78/182/2 73/183/2 67/171/2
f 73/170/2 63/184/2 62/185/2
f 74/172/2 63/184/2 73/186/2
f 79/187/2 68/173/2 74/188/2
f 53/161/2 75/189/2 80/190/2
f 75/191/2 69/174/2 79/192/2
f 76/193/2 66/194/2 70/165/2
f 55/195/2 81/196/2 76/177/2
f 77/178/2 66/194/2 76/177/2
f 72/180/2 71/179/2 77/197/2
f 82/198/2 73/183/2 78/199/2
f 83/200/2 79/201/2 74/188/2
f 79/187/2 69/174/2 68/202/2
f 84/203/2 53/133/2 80/190/2
f 85/204/2 81/196/2 55/134/2
f 86/205/2 72/206/2 77/197/2
f 87/207/2 82/208/2 78/199/2
f 88/209/2 79/201/2 83/210/2
f 89/211/2 84/212/2 80/190/2
f 90/213/2 81/196/2 85/214/2
f 91/215/2 72/206/2 86/216/2
f 87/207/2 78/217/2 92/218/2
f 93/219/2 82/208/2 87/220/2
f 94/221/2 88/222/2 83/210/2
f 89/211/2 80/223/2 95/224/2
f 96/225/2 84/212/2 89/226/2
f 97/227/2 90/228/2 85/214/2
f 90/213/2 86/229/2 81/230/2
f 98/231/2 91/232/2 86/216/2
f 92/233/2 78/217/2 91/234/2
f 99/235/2 93/236/2 87/220/2
f 93/219/2 83/237/2 82/238/2
f 94/221/2 83/237/2 93/239/2
f 95/240/2 88/222/2 94/241/2
f 95/240/2 80/223/2 88/242/2
f 96/225/2 100/243/2 84/244/2
f 101/245/2 97/246/2 85/214/2
f 98/231/2 86/229/2 90/247/2
f 92/233/2 91/232/2 98/248/2
f 102/249/2 93/236/2 99/250/2
f 103/251/2 95/252/2 94/241/2
f 103/251/2 84/212/2 100/253/2
f 104/254/2 101/255/2 85/214/2
f 101/245/2 92/256/2 98/248/2
f 102/249/2 99/257/2 85/214/2
f 100/258/2 95/252/2 103/259/2
f 102/249/2 84/212/2 103/259/2
f 99/235/2 104/260/2 85/214/2
f 104/254/2 92/256/2 101/261/2
f 102/249/2 85/262/2 84/244/2
f 33/73/3 55/164/3 3/3/3
f 85/204/3 55/164/3 33/83/3
f 14/24/3 61/154/3 9/25/3
f 66/155/3 61/154/3 14/36/3
f 34/75/3 77/263/3 25/66/3
f 86/205/3 77/263/3 34/85/3
f 49/115/3 98/264/3 46/117/3
f 101/245/3 98/264/3 49/130/3
f 7/10/3 56/140/3 4/11/3
f 59/141/3 56/140/3 7/17/3
f 26/52/3 67/265/3 15/40/3
f 78/182/3 67/265/3 26/68/3
f 47/105/3 87/266/3 35/89/3
f 99/235/3 87/266/3 47/119/3
f 11/19/3 57/267/3 5/13/3
f 63/149/3 57/267/3 11/29/3
f 31/70/3 74/268/3 22/57/3
f 83/200/3 74/268/3 31/79/3
f 51/121/3 94/269/3 42/110/3
f 103/251/3 94/269/3 51/128/3
f 17/270/3 64/162/3 12/271/3
f 69/272/3 64/162/3 17/32/3
f 28/273/3 75/189/3 23/44/3
f 80/274/3 75/189/3 28/59/3
f 44/94/3 89/275/3 37/95/3
f 96/225/3 89/275/3 44/276/3
f 65/277/4 18/45/4 13/278/4
f 65/277/4 70/176/4 18/34/4
f 76/279/4 29/280/4 24/46/4
f 76/279/4 81/281/4 29/99/4
f 90/228/4 45/97/4 38/116/4
f 90/228/4 97/227/4 45/282/4
f 58/146/4 19/35/4 6/283/4
f 58/146/4 71/166/4 19/50/4
f 72/206/4 39/84/4 20/38/4
f 72/206/4 91/215/4 39/103/4
f 92/256/4 52/124/4 40/87/4
f 92/256/4 104/254/4 52/284/4
f 54/136/4 10/16/4 2/7/4
f 54/136/4 62/147/4 10/54/4
f 73/183/4 30/67/4 21/55/4
f 73/183/4 82/198/4 30/107/4
f 93/236/4 50/118/4 41/108/4
f 93/236/4 102/249/4 50/285/4
f 60/150/4 16/28/4 8/21/4
f 60/150/4 68/159/4 16/71/4
f 79/201/4 36/78/4 27/61/4
f 79/201/4 88/209/4 36/111/4
f 95/252/4 48/127/4 43/93/4
f 95/252/4 100/258/4 48/122/4
f 53/133/4 32/72/4 1/286/4
f 53/133/4 84/203/4 32/113/4
f 81/196/5 34/75/5 29/99/5
f 81/196/5 86/205/5 34/85/5
f 91/232/5 26/52/5 39/103/5
f 91/232/5 78/182/5 26/68/5
f 82/208/5 31/70/5 30/107/5
f 82/208/5 83/200/5 31/79/5
f 88/222/5 28/273/5 36/111/5
f 88/222/5 80/274/5 28/59/5
f 70/287/5 14/24/5 18/34/5
f 70/287/5 66/155/5 14/36/5
f 71/179/5 7/10/5 19/50/5
f 71/179/5 59/141/5 7/17/5
f 62/158/5 11/19/5 10/54/5
f 62/158/5 63/149/5 11/29/5
f 68/173/5 17/270/5 16/71/5
f 68/173/5 69/272/5 17/32/5
f 97/246/5 49/115/5 45/282/5
f 97/246/5 101/245/5 49/130/5
f 104/260/5 47/105/5 52/284/5
f 104/260/5 99/235/5 47/119/5
f 102/288/5 51/121/5 50/285/5
f 102/288/5 103/251/5 51/128/5
f 100/243/5 44/94/5 48/122/5
f 100/243/5 96/225/5 44/276/5
f 55/164/5 1/31/5 3/3/5
f 55/164/5 53/161/5 1/286/5
f 46/101/6 90/228/6 38/116/6
f 98/231/6 90/228/6 46/117/6
f 35/77/6 92/256/6 40/87/6
f 87/207/6 92/256/6 35/89/6
f 42/91/6 93/236/6 41/108/6
f 94/221/6 93/236/6 42/110/6
f 37/81/6 95/252/6 43/93/6
f 89/211/6 95/252/6 37/95/6
f 25/48/6 76/279/6 24/46/6
f 77/178/6 76/279/6 25/66/6
f 15/27/6 72/206/6 20/38/6
f 67/157/6 72/206/6 15/40/6
f 22/42/6 73/183/6 21/55/6
f 74/172/6 73/183/6 22/57/6
f 23/60/6 79/201/6 27/61/6
f 75/191/6 79/201/6 23/44/6
f 32/72/6 85/262/6 33/83/6
f 84/203/6 85/262/6 32/113/6
f 9/15/6 65/277/6 13/278/6
f 61/145/6 65/277/6 9/25/6
f 4/5/6 58/146/6 6/283/6
f 56/135/6 58/146/6 4/11/6
f 5/6/6 54/136/6 2/7/6
f 57/137/6 54/136/6 5/13/6
f 12/20/6 60/150/6 8/21/6
f 64/151/6 60/150/6 12/271/6
