# MagicaVoxel @ Ephtracy

# material
mtllib wood_door.mtl
usemtl palette

# normals
vn -1 0 0
vn 1 0 0
vn 0 0 1
vn 0 0 -1
vn 0 -1 0
vn 0 1 0

# texcoords
vt 0.978516 0.5
vt 0.986328 0.5
vt 0.990234 0.5

# verts
v -0.5 0 2
v -0.5 0 -2
v -0.5 1 2
v -0.5 1 -2
v -0.5 2 2
v -0.5 2 1
v -0.5 2 -2
v -0.5 3 2
v -0.5 3 1
v -0.5 3 -2
v -0.5 4 2
v -0.5 4 -2
v -0.5 5 2
v -0.5 5 -2
v 0.5 0 2
v 0.5 0 -2
v 0.5 1 2
v 0.5 1 -2
v 0.5 2 2
v 0.5 2 1
v 0.5 2 -2
v 0.5 3 2
v 0.5 3 1
v 0.5 3 -2
v 0.5 4 2
v 0.5 4 -2
v 0.5 5 2
v 0.5 5 -2
v -0.5 0 2
v -0.5 1 2
v -0.5 2 2
v -0.5 3 2
v -0.5 4 2
v -0.5 5 2
v 0.5 0 2
v 0.5 1 2
v 0.5 2 2
v 0.5 3 2
v 0.5 4 2
v 0.5 5 2
v -0.5 0 -2
v -0.5 1 -2
v -0.5 2 -2
v -0.5 3 -2
v -0.5 4 -2
v -0.5 5 -2
v 0.5 0 -2
v 0.5 1 -2
v 0.5 2 -2
v 0.5 3 -2
v 0.5 4 -2
v 0.5 5 -2
v -0.5 0 2
v 0.5 0 2
v -0.5 0 -2
v 0.5 0 -2
v -0.5 5 2
v 0.5 5 2
v -0.5 5 -2
v 0.5 5 -2

# faces
f 3/2/1 2/2/1 1/2/1
f 4/2/1 2/2/1 3/2/1
f 5/3/1 4/3/1 3/3/1
f 6/3/1 4/3/1 5/3/1
f 7/3/1 4/3/1 6/3/1
f 8/1/1 6/1/1 5/1/1
f 9/2/1 7/2/1 6/2/1
f 9/1/1 6/1/1 8/1/1
f 10/2/1 7/2/1 9/2/1
f 11/3/1 9/3/1 8/3/1
f 11/3/1 10/3/1 9/3/1
f 12/3/1 10/3/1 11/3/1
f 13/2/1 12/2/1 11/2/1
f 14/2/1 12/2/1 13/2/1
f 15/2/2 16/2/2 17/2/2
f 17/2/2 16/2/2 18/2/2
f 17/3/2 18/3/2 19/3/2
f 19/3/2 18/3/2 20/3/2
f 20/3/2 18/3/2 21/3/2
f 19/1/2 20/1/2 22/1/2
f 20/2/2 21/2/2 23/2/2
f 22/1/2 20/1/2 23/1/2
f 23/2/2 21/2/2 24/2/2
f 22/3/2 23/3/2 25/3/2
f 23/3/2 24/3/2 25/3/2
f 25/3/2 24/3/2 26/3/2
f 25/2/2 26/2/2 27/2/2
f 27/2/2 26/2/2 28/2/2
f 35/2/3 30/2/3 29/2/3
f 36/3/3 31/3/3 30/3/3
f 36/2/3 30/2/3 35/2/3
f 37/1/3 32/1/3 31/1/3
f 37/3/3 31/3/3 36/3/3
f 38/3/3 33/3/3 32/3/3
f 38/1/3 32/1/3 37/1/3
f 39/2/3 34/2/3 33/2/3
f 39/3/3 33/3/3 38/3/3
f 40/2/3 34/2/3 39/2/3
f 41/2/4 42/2/4 47/2/4
f 42/3/4 43/3/4 48/3/4
f 47/2/4 42/2/4 48/2/4
f 43/2/4 44/2/4 49/2/4
f 48/3/4 43/3/4 49/3/4
f 44/3/4 45/3/4 50/3/4
f 49/2/4 44/2/4 50/2/4
f 45/2/4 46/2/4 51/2/4
f 50/3/4 45/3/4 51/3/4
f 51/2/4 46/2/4 52/2/4
f 55/2/5 54/2/5 53/2/5
f 56/2/5 54/2/5 55/2/5
f 57/2/6 58/2/6 59/2/6
f 59/2/6 58/2/6 60/2/6
