# MagicaVoxel @ Ephtracy

# material
mtllib coin.mtl
usemtl palette

# normals
vn -1 0 0
vn 1 0 0
vn 0 0 1
vn 0 0 -1
vn 0 -1 0
vn 0 1 0

# texcoords
vt 0.970703 0.5
vt 0.974609 0.5
vt 0.978516 0.5
vt 0.982422 0.5
vt 0.986328 0.5
vt 0.990234 0.5

# verts
v -2 1 0.5
v -2 1 -0.5
v -2 7 0.5
v -2 7 -0.5
v -1 0 0.5
v -1 0 -0.5
v -1 1 0.5
v -1 1 -0.5
v -1 7 0.5
v -1 7 -0.5
v -1 8 0.5
v -1 8 -0.5
v 1 0 0.5
v 1 0 -0.5
v 1 1 0.5
v 1 1 -0.5
v 1 7 0.5
v 1 7 -0.5
v 1 8 0.5
v 1 8 -0.5
v 2 1 0.5
v 2 1 -0.5
v 2 7 0.5
v 2 7 -0.5
v -2 1 0.5
v -2 7 0.5
v -1 0 0.5
v -1 1 0.5
v -1 3 0.5
v -1 7 0.5
v -1 8 0.5
v 0 2 0.5
v 0 3 0.5
v 0 5 0.5
v 0 6 0.5
v 1 0 0.5
v 1 1 0.5
v 1 2 0.5
v 1 5 0.5
v 1 6 0.5
v 1 7 0.5
v 1 8 0.5
v 2 1 0.5
v 2 7 0.5
v -2 1 -0.5
v -2 7 -0.5
v -1 0 -0.5
v -1 1 -0.5
v -1 3 -0.5
v -1 7 -0.5
v -1 8 -0.5
v 0 2 -0.5
v 0 3 -0.5
v 0 5 -0.5
v 0 6 -0.5
v 1 0 -0.5
v 1 1 -0.5
v 1 2 -0.5
v 1 5 -0.5
v 1 6 -0.5
v 1 7 -0.5
v 1 8 -0.5
v 2 1 -0.5
v 2 7 -0.5
v -1 0 0.5
v 1 0 0.5
v -1 0 -0.5
v 1 0 -0.5
v -2 1 0.5
v -1 1 0.5
v 1 1 0.5
v 2 1 0.5
v -2 1 -0.5
v -1 1 -0.5
v 1 1 -0.5
v 2 1 -0.5
v -2 7 0.5
v -1 7 0.5
v 1 7 0.5
v 2 7 0.5
v -2 7 -0.5
v -1 7 -0.5
v 1 7 -0.5
v 2 7 -0.5
v -1 8 0.5
v 1 8 0.5
v -1 8 -0.5
v 1 8 -0.5

# faces
f 3/1/1 2/1/1 1/1/1
f 4/1/1 2/1/1 3/1/1
f 7/1/1 6/1/1 5/1/1
f 8/1/1 6/1/1 7/1/1
f 11/2/1 10/2/1 9/2/1
f 12/2/1 10/2/1 11/2/1
f 13/1/2 14/1/2 15/1/2
f 15/1/2 14/1/2 16/1/2
f 17/2/2 18/2/2 19/2/2
f 19/2/2 18/2/2 20/2/2
f 21/2/2 22/2/2 23/2/2
f 23/2/2 22/2/2 24/2/2
f 28/1/3 26/1/3 25/1/3
f 29/1/3 26/1/3 28/1/3
f 30/1/3 26/1/3 29/1/3
f 32/3/3 29/3/3 28/3/3
f 33/6/3 30/6/3 29/6/3
f 33/3/3 29/3/3 32/3/3
f 34/6/3 30/6/3 33/6/3
f 35/6/3 30/6/3 34/6/3
f 36/1/3 28/1/3 27/1/3
f 37/3/3 32/3/3 28/3/3
f 37/1/3 28/1/3 36/1/3
f 38/4/3 33/4/3 32/4/3
f 38/3/3 32/3/3 37/3/3
f 38/4/3 34/4/3 33/4/3
f 39/5/3 35/5/3 34/5/3
f 39/4/3 34/4/3 38/4/3
f 40/6/3 30/6/3 35/6/3
f 40/5/3 35/5/3 39/5/3
f 41/2/3 31/2/3 30/2/3
f 41/6/3 30/6/3 40/6/3
f 42/2/3 31/2/3 41/2/3
f 43/2/3 39/2/3 38/2/3
f 43/2/3 40/2/3 39/2/3
f 43/2/3 41/2/3 40/2/3
f 43/2/3 38/2/3 37/2/3
f 44/2/3 41/2/3 43/2/3
f 45/1/4 46/1/4 48/1/4
f 48/1/4 46/1/4 49/1/4
f 49/1/4 46/1/4 50/1/4
f 48/3/4 49/3/4 52/3/4
f 49/6/4 50/6/4 53/6/4
f 52/3/4 49/3/4 53/3/4
f 53/6/4 50/6/4 54/6/4
f 54/6/4 50/6/4 55/6/4
f 47/1/4 48/1/4 56/1/4
f 48/3/4 52/3/4 57/3/4
f 56/1/4 48/1/4 57/1/4
f 52/4/4 53/4/4 58/4/4
f 57/3/4 52/3/4 58/3/4
f 53/4/4 54/4/4 58/4/4
f 54/5/4 55/5/4 59/5/4
f 58/4/4 54/4/4 59/4/4
f 55/6/4 50/6/4 60/6/4
f 59/5/4 55/5/4 60/5/4
f 50/2/4 51/2/4 61/2/4
f 60/6/4 50/6/4 61/6/4
f 61/2/4 51/2/4 62/2/4
f 58/2/4 59/2/4 63/2/4
f 59/2/4 60/2/4 63/2/4
f 60/2/4 61/2/4 63/2/4
f 57/2/4 58/2/4 63/2/4
f 63/2/4 61/2/4 64/2/4
f 67/1/5 66/1/5 65/1/5
f 68/1/5 66/1/5 67/1/5
f 73/1/5 70/1/5 69/1/5
f 74/1/5 70/1/5 73/1/5
f 75/2/5 72/2/5 71/2/5
f 76/2/5 72/2/5 75/2/5
f 77/1/6 78/1/6 81/1/6
f 81/1/6 78/1/6 82/1/6
f 79/2/6 80/2/6 83/2/6
f 83/2/6 80/2/6 84/2/6
f 85/2/6 86/2/6 87/2/6
f 87/2/6 86/2/6 88/2/6
